<svg width="17" height="20" viewBox="0 0 17 20" fill="none" xmlns="http://www.w3.org/2000/svg">
<g id="Frame" clip-path="url(#clip0_0_27)">
<path id="Vector" fill-rule="evenodd" clip-rule="evenodd" d="M10.1213 7.1244C10.7331 6.81933 11.5115 6.37027 12.2909 5.755C12.4553 6.09627 12.4733 6.39407 12.3886 6.63453C12.3286 6.804 12.2155 6.9514 12.0669 7.06867C11.9059 7.1954 11.7048 7.28767 11.4825 7.33753C11.0608 7.43253 10.5684 7.37707 10.1213 7.1244ZM10.2273 10.2501L11.0372 10.7179C9.38361 11.6447 8.93408 13.3657 8.40008 15.0419C7.86614 13.3657 7.41654 11.6447 5.76301 10.7179L6.57288 10.2501C6.65122 10.2205 6.71818 10.1669 6.76417 10.0969C6.81016 10.0269 6.83281 9.94413 6.82888 9.86047C6.75468 8.29067 7.17854 7.59647 7.75028 7.1606C7.95534 7.00447 8.17921 6.92607 8.40008 6.92607C8.62094 6.92607 8.84481 7.00447 9.04994 7.1606C9.62168 7.59647 10.0455 8.29067 9.97134 9.86047C9.96741 9.94413 9.99006 10.0269 10.0361 10.0969C10.082 10.1669 10.149 10.2205 10.2273 10.2501ZM8.40008 0C9.33621 0.0251333 10.2747 0.206867 11.0891 0.5604C11.6531 0.805533 12.1794 1.12933 12.6559 1.51653C12.8711 1.69133 13.0483 1.8602 13.2435 2.0546C13.77 2.0728 14.5394 1.48793 14.8966 0.940667C14.2819 2.956 11.4767 5.33593 9.53461 6.2466C9.53381 6.24627 9.53328 6.2458 9.53268 6.2454C9.18414 5.97927 8.79214 5.8462 8.40008 5.8462C8.00801 5.8462 7.61608 5.97927 7.26754 6.2454C7.26694 6.24573 7.26641 6.24633 7.26561 6.2466C5.32348 5.33593 2.51834 2.956 1.90361 0.940667C2.26074 1.48793 3.03014 2.0728 3.55661 2.0546C3.75188 1.86027 3.92908 1.69133 4.14421 1.51653C4.62074 1.12933 5.14701 0.805533 5.71101 0.5604C6.52554 0.206867 7.46401 0.0251333 8.40008 0ZM6.67888 7.1244C6.06714 6.81933 5.28861 6.37027 4.50928 5.755C4.34494 6.09627 4.32694 6.39407 4.41154 6.63453C4.47161 6.804 4.58468 6.9514 4.73328 7.06867C4.89434 7.1954 5.09541 7.28767 5.31768 7.33753C5.73941 7.43253 6.23174 7.37707 6.67888 7.1244Z" fill="white"/>
<path id="Vector_2" fill-rule="evenodd" clip-rule="evenodd" d="M13.1445 5.00107C13.5736 4.56807 13.9516 4.0888 14.2556 3.66113L14.41 3.95173C14.9071 4.9462 15.1654 5.93667 15.1654 7.05133L15.1643 8.82013L15.1736 9.73707C15.2096 11.9881 15.6967 14.2657 16.8 16.3499L14.4916 14.4885L12.8582 17.1391L11.1422 15.5237L8.40003 19.9736L5.6579 15.5237L3.94196 17.1391L2.30856 14.4885L3.05176e-05 16.35C1.10336 14.2657 1.59043 11.9882 1.6265 9.73713L1.63583 8.8202L1.63476 7.0514C1.63476 5.93667 1.89296 4.9462 2.39016 3.9518L2.5445 3.6612C2.8485 4.08887 3.2265 4.56807 3.65563 5.00113L3.52163 5.27947C3.2613 5.82007 3.1751 6.42453 3.3779 6.9994C3.50863 7.36967 3.74723 7.6872 4.05483 7.9296C4.3535 8.165 4.70696 8.32367 5.07703 8.407C5.3181 8.46127 5.5637 8.4836 5.8077 8.476C5.75076 8.79873 5.7259 9.13347 5.7243 9.47453L3.5467 10.7323L5.2271 11.6742C5.36141 11.7495 5.48926 11.8358 5.60936 11.9321C6.99476 13.176 7.8277 16.8558 8.4001 18.6532C8.97256 16.8558 9.80543 13.176 11.1909 11.9321C11.311 11.8358 11.4388 11.7495 11.5732 11.6742L13.2536 10.7323L11.0759 9.47453C11.0743 9.13347 11.0494 8.79873 10.9925 8.476C11.2365 8.4836 11.4821 8.46127 11.7232 8.407C12.0932 8.32367 12.4468 8.165 12.7454 7.9296C13.0529 7.6872 13.2916 7.36967 13.4222 6.9994C13.6251 6.42453 13.5388 5.82013 13.2786 5.27947L13.1446 5.00113L13.1445 5.00107Z" fill="white"/>
</g>
<defs>
<clipPath id="clip0_0_27">
<rect width="16.8" height="20" fill="white"/>
</clipPath>
</defs>
</svg>
